<svg width="960" height="188" viewBox="0 0 960 188" fill="none" xmlns="http://www.w3.org/2000/svg">
<rect x="5.5" y="5.5" width="257" height="177" rx="26.5273" fill="#1F232A"/>
<rect x="5.5" y="5.5" width="257" height="177" rx="26.5273" stroke="#1F232A" stroke-width="11"/>
<path d="M76.7469 145.825C56.509 145.825 46.39 133.538 46.39 108.782V52.9474H64.0982V106.072C64.0982 123.238 71.326 131.369 84.1554 131.369C100.211 131.369 108.369 122.445 108.369 110.017V52.9474H126.077V143.295H108.369V127.799H107.827C100.711 137.434 92.7167 145.825 76.7469 145.825Z" fill="#FBFCFF"/>
<path d="M190.387 50.4011C210.624 50.4011 220.743 62.6884 220.743 87.4438L220.743 143.279L203.035 143.279L203.035 90.1542C203.035 72.9881 195.807 64.8568 182.978 64.8568C166.922 64.8568 158.765 73.7812 158.765 86.2091L158.765 143.279L141.057 143.279L141.057 52.9309L158.765 52.9309L158.765 68.427L159.307 68.427C166.422 58.7918 174.417 50.4011 190.387 50.4011Z" fill="#FBFCFF"/>
<path d="M337.244 5.5H548.756C557.815 5.5 564.279 5.50418 569.344 5.91797C574.032 6.30098 577.094 7.01074 579.535 8.15625L580.016 8.3916C584.851 10.8554 588.811 14.7402 591.366 19.5186L591.608 19.9844C592.893 22.5053 593.673 25.6558 594.082 30.6562C594.496 35.7209 594.5 42.185 594.5 51.2441V136.756C594.5 145.815 594.496 152.279 594.082 157.344C593.699 162.032 592.989 165.094 591.844 167.535L591.608 168.016C589.145 172.851 585.26 176.811 580.481 179.366L580.016 179.608C577.495 180.893 574.344 181.673 569.344 182.082C564.279 182.496 557.815 182.5 548.756 182.5H337.244C328.185 182.5 321.721 182.496 316.656 182.082C311.968 181.699 308.906 180.989 306.465 179.844L305.984 179.608C301.149 177.145 297.189 173.26 294.634 168.481L294.392 168.016C293.107 165.495 292.327 162.344 291.918 157.344C291.504 152.279 291.5 145.815 291.5 136.756V51.2441C291.5 42.185 291.504 35.7209 291.918 30.6562C292.301 25.9685 293.011 22.9064 294.156 20.4648L294.392 19.9844C296.855 15.149 300.74 11.1888 305.519 8.63379L305.984 8.3916C308.505 7.10713 311.656 6.32652 316.656 5.91797C321.721 5.50418 328.185 5.5 337.244 5.5Z" fill="#1F232A"/>
<path d="M337.244 5.5H548.756C557.815 5.5 564.279 5.50418 569.344 5.91797C574.032 6.30098 577.094 7.01074 579.535 8.15625L580.016 8.3916C584.851 10.8554 588.811 14.7402 591.366 19.5186L591.608 19.9844C592.893 22.5053 593.673 25.6558 594.082 30.6562C594.496 35.7209 594.5 42.185 594.5 51.2441V136.756C594.5 145.815 594.496 152.279 594.082 157.344C593.699 162.032 592.989 165.094 591.844 167.535L591.608 168.016C589.145 172.851 585.26 176.811 580.481 179.366L580.016 179.608C577.495 180.893 574.344 181.673 569.344 182.082C564.279 182.496 557.815 182.5 548.756 182.5H337.244C328.185 182.5 321.721 182.496 316.656 182.082C311.968 181.699 308.906 180.989 306.465 179.844L305.984 179.608C301.149 177.145 297.189 173.26 294.634 168.481L294.392 168.016C293.107 165.495 292.327 162.344 291.918 157.344C291.504 152.279 291.5 145.815 291.5 136.756V51.2441C291.5 42.185 291.504 35.7209 291.918 30.6562C292.301 25.9685 293.011 22.9064 294.156 20.4648L294.392 19.9844C296.855 15.149 300.74 11.1888 305.519 8.63379L305.984 8.3916C308.505 7.10713 311.656 6.32652 316.656 5.91797C321.721 5.50418 328.185 5.5 337.244 5.5Z" stroke="#1F232A" stroke-width="11"/>
<path d="M445.735 145.281C420.116 145.281 400.992 127.781 400.992 97.4713C400.992 68.6051 419.395 49.6616 446.276 49.6616C472.256 49.6616 490.297 66.0793 490.297 95.4868C490.297 98.0126 490.117 99.9971 489.937 101.801H418.132C419.034 120.384 429.859 131.389 446.457 131.389C459.266 131.389 468.467 125.075 471.534 113.348H489.034C485.607 133.915 468.648 145.281 445.735 145.281ZM418.673 90.6156H472.436C472.076 74.3783 462.153 62.8318 445.916 62.8318C430.039 62.8318 419.755 74.7392 418.673 90.6156Z" fill="#FBFCFF"/>
<path d="M372.562 143.279C356.866 143.279 347.846 135.16 347.846 119.464V66.6029H325.724V53.0718H347.846V35.811H365.526V53.0718H391.506V66.6029H365.526V116.217C365.526 124.155 369.315 128.485 376.892 128.485H391.506V143.279H372.562Z" fill="#FBFCFF"/>
<path d="M505.409 143.279V53.0717H522.909L522.368 78.6905H523.27C526.698 64.6182 534.095 51.448 550.332 51.448C553.219 51.448 555.384 51.6284 557.549 51.9892V70.0306H550.873C534.275 70.0306 522.909 78.6905 522.909 103.227V143.279H505.409Z" fill="#FBFCFF"/>
<path d="M669.244 5.5H908.756C917.815 5.5 924.279 5.50418 929.344 5.91797C934.032 6.30098 937.094 7.01074 939.535 8.15625L940.016 8.3916C944.851 10.8554 948.811 14.7402 951.366 19.5186L951.608 19.9844C952.893 22.5053 953.673 25.6558 954.082 30.6562C954.496 35.7209 954.5 42.185 954.5 51.2441V136.756C954.5 145.815 954.496 152.279 954.082 157.344C953.699 162.032 952.989 165.094 951.844 167.535L951.608 168.016C949.145 172.851 945.26 176.811 940.481 179.366L940.016 179.608C937.495 180.893 934.344 181.673 929.344 182.082C924.279 182.496 917.815 182.5 908.756 182.5H669.244C660.185 182.5 653.721 182.496 648.656 182.082C643.968 181.699 640.906 180.989 638.465 179.844L637.984 179.608C633.149 177.145 629.189 173.26 626.634 168.481L626.392 168.016C625.107 165.495 624.327 162.344 623.918 157.344C623.504 152.279 623.5 145.815 623.5 136.756V51.2441C623.5 42.185 623.504 35.7209 623.918 30.6562C624.301 25.9685 625.011 22.9064 626.156 20.4648L626.392 19.9844C628.855 15.149 632.74 11.1888 637.519 8.63379L637.984 8.3916C640.505 7.10713 643.656 6.32652 648.656 5.91797C653.721 5.50418 660.185 5.5 669.244 5.5Z" fill="#1F232A"/>
<path d="M669.244 5.5H908.756C917.815 5.5 924.279 5.50418 929.344 5.91797C934.032 6.30098 937.094 7.01074 939.535 8.15625L940.016 8.3916C944.851 10.8554 948.811 14.7402 951.366 19.5186L951.608 19.9844C952.893 22.5053 953.673 25.6558 954.082 30.6562C954.496 35.7209 954.5 42.185 954.5 51.2441V136.756C954.5 145.815 954.496 152.279 954.082 157.344C953.699 162.032 952.989 165.094 951.844 167.535L951.608 168.016C949.145 172.851 945.26 176.811 940.481 179.366L940.016 179.608C937.495 180.893 934.344 181.673 929.344 182.082C924.279 182.496 917.815 182.5 908.756 182.5H669.244C660.185 182.5 653.721 182.496 648.656 182.082C643.968 181.699 640.906 180.989 638.465 179.844L637.984 179.608C633.149 177.145 629.189 173.26 626.634 168.481L626.392 168.016C625.107 165.495 624.327 162.344 623.918 157.344C623.504 152.279 623.5 145.815 623.5 136.756V51.2441C623.5 42.185 623.504 35.7209 623.918 30.6562C624.301 25.9685 625.011 22.9064 626.156 20.4648L626.392 19.9844C628.855 15.149 632.74 11.1888 637.519 8.63379L637.984 8.3916C640.505 7.10713 643.656 6.32652 648.656 5.91797C653.721 5.50418 660.185 5.5 669.244 5.5Z" stroke="#1F232A" stroke-width="11"/>
<path d="M798.332 144.985C772.713 144.985 753.589 127.485 753.589 97.1754C753.589 68.3092 771.992 49.3657 798.873 49.3657C824.853 49.3657 842.894 65.7834 842.894 95.1909C842.894 97.7167 842.714 99.7012 842.533 101.505H770.729C771.631 120.088 782.456 131.093 799.054 131.093C811.863 131.093 821.064 124.779 824.131 113.052H841.631C838.203 133.619 821.245 144.985 798.332 144.985ZM771.27 90.3197H825.033C824.672 74.0824 814.75 62.5359 798.512 62.5359C782.636 62.5359 772.352 74.4433 771.27 90.3197Z" fill="#FBFCFF"/>
<path d="M895.807 143.279C880.111 143.279 871.091 135.16 871.091 119.464V66.6029H848.969V53.0718H871.091V35.811H888.771V53.0718H914.751V66.6029H888.771V116.217C888.771 124.155 892.56 128.485 900.137 128.485H914.751V143.279H895.807Z" fill="#FBFCFF"/>
<path d="M709.921 50.4011C730.159 50.4011 740.278 62.6884 740.278 87.4437L740.278 143.279H722.57L722.57 90.1542C722.57 72.9881 715.342 64.8568 702.513 64.8568C686.457 64.8568 678.299 73.7812 678.299 86.2091L678.299 143.279H660.591L660.591 52.9309L678.299 52.9309L678.299 68.427H678.842C685.957 58.7918 693.951 50.4011 709.921 50.4011Z" fill="#FBFCFF"/>
</svg>
